<svg width="16" height="16" viewBox="0 0 16 16" fill="none" xmlns="http://www.w3.org/2000/svg">
<path fill-rule="evenodd" clip-rule="evenodd" d="M8.00001 2C8.36819 2 8.66667 2.29848 8.66667 2.66667L8.66667 9.05719L10.1953 7.52859C10.4556 7.26824 10.8777 7.26825 11.1381 7.52859C11.3984 7.78894 11.3984 8.21105 11.1381 8.4714L8.47141 11.1381C8.21106 11.3984 7.78895 11.3984 7.5286 11.1381L4.86193 8.4714C4.60158 8.21106 4.60158 7.78895 4.86193 7.5286C5.12228 7.26825 5.54439 7.26825 5.80474 7.5286L7.33333 9.05719L7.33334 2.66667C7.33334 2.29848 7.63181 2 8.00001 2ZM13.3333 9.33333C13.7015 9.33333 14 9.63181 14 10V11.3333C14 12.8061 12.8061 14 11.3333 14H4.66667C3.19391 14 2 12.8061 2 11.3333L2 10C2 9.63181 2.29848 9.33333 2.66667 9.33333C3.03486 9.33333 3.33333 9.63181 3.33333 10V11.3333C3.33333 12.0697 3.93029 12.6667 4.66667 12.6667L11.3333 12.6667C12.0697 12.6667 12.6667 12.0697 12.6667 11.3333V10C12.6667 9.63181 12.9651 9.33333 13.3333 9.33333Z" fill="#7CCF00"/>
</svg>
