<svg width="87" height="70" viewBox="0 0 87 70" fill="none" xmlns="http://www.w3.org/2000/svg">
<g clip-path="url(#clip0_2059_18077)">
<path d="M80.7361 0H14.3531C12.9256 0 11.5566 0.567073 10.5472 1.57647C9.53778 2.58587 8.9707 3.9549 8.9707 5.3824V12.5589C8.9707 13.0348 9.15973 13.4911 9.49619 13.8276C9.83266 14.164 10.289 14.3531 10.7648 14.3531H25.5826C26.2152 14.353 26.8366 14.5203 27.3838 14.8378C27.9309 15.1554 28.3844 15.6119 28.6983 16.1612L32.2586 22.392C33.0432 23.7652 34.1769 24.9064 35.5447 25.7002C36.9126 26.494 38.466 26.912 40.0474 26.912H69.9713C70.4471 26.912 70.9034 27.101 71.2399 27.4375C71.5764 27.774 71.7654 28.2303 71.7654 28.7061V68.1771C71.7654 68.6529 71.9544 69.1093 72.2909 69.4457C72.6273 69.7822 73.0837 69.9712 73.5595 69.9712H80.7361C82.1636 69.9712 83.5326 69.4041 84.542 68.3948C85.5514 67.3854 86.1185 66.0163 86.1185 64.5888V5.3824C86.1185 3.9549 85.5514 2.58587 84.542 1.57647C83.5326 0.567073 82.1636 0 80.7361 0Z" fill="#E5E8DC"/>
<path d="M75.3536 64.5896V28.707C75.3536 27.2795 74.7865 25.9104 73.7772 24.901C72.7678 23.8916 71.3987 23.3246 69.9712 23.3246H40.0474C39.0984 23.3246 38.1663 23.0738 37.3455 22.5975C36.5247 22.1212 35.8445 21.4363 35.3737 20.6124L31.2967 13.4776C30.8259 12.6538 30.1457 11.969 29.3251 11.4928C28.5044 11.0165 27.5724 10.7656 26.6235 10.7656H5.3824C3.9549 10.7656 2.58587 11.3327 1.57647 12.3421C0.567073 13.3515 0 14.7205 0 16.148L0 64.5896C0 66.0171 0.567073 67.3862 1.57647 68.3956C2.58587 69.405 3.9549 69.972 5.3824 69.972H80.736C79.3085 69.972 77.9395 69.405 76.9301 68.3956C75.9207 67.3862 75.3536 66.0171 75.3536 64.5896Z" fill="#EEF1E7"/>
</g>
<defs>
<clipPath id="clip0_2059_18077">
<rect width="86.1186" height="70" fill="white"/>
</clipPath>
</defs>
</svg>
