<svg width="18" height="18" viewBox="0 0 18 18" fill="none" xmlns="http://www.w3.org/2000/svg">
<mask id="path-1-outside-1_1006_31742" maskUnits="userSpaceOnUse" x="0" y="0" width="18" height="18" fill="black">
<rect fill="white" width="18" height="18"/>
<path d="M1 9C1 4.58172 4.58172 1 9 1C13.4183 1 17 4.58172 17 9C17 13.4183 13.4183 17 9 17C4.58172 17 1 13.4183 1 9Z"/>
</mask>
<path d="M9 17V16C5.13401 16 2 12.866 2 9H1H0C0 13.9706 4.02944 18 9 18V17ZM17 9H16C16 12.866 12.866 16 9 16V17V18C13.9706 18 18 13.9706 18 9H17ZM9 1V2C12.866 2 16 5.13401 16 9H17H18C18 4.02944 13.9706 0 9 0V1ZM9 1V0C4.02944 0 0 4.02944 0 9H1H2C2 5.13401 5.13401 2 9 2V1Z" fill="#9AE600" mask="url(#path-1-outside-1_1006_31742)"/>
<circle cx="9" cy="9" r="4" fill="#9AE600"/>
</svg>
