<svg width="200" height="41" viewBox="0 0 200 41" fill="none" xmlns="http://www.w3.org/2000/svg">
<g clip-path="url(#clip0_2221_37110)">
<g clip-path="url(#clip1_2221_37110)">
<path d="M3.08986 13.983C3.08986 17.4301 5.244 20.1043 8.79298 21.0341C10.65 21.5211 12.5648 21.8072 14.1742 23.004C16.8373 24.9848 17.5554 27.7414 17.3876 30.8612C17.3315 31.6533 17.1562 32.4324 16.8676 33.1722C16.7823 33.4061 16.6585 33.6729 16.3972 33.6812C16.1358 33.6894 16.1798 33.3703 16.122 33.1832C14.9225 29.4967 12.0916 27.6809 8.61416 26.5392C6.90295 25.989 5.07618 25.8569 3.43925 25.0151C0.910948 23.7193 -0.382092 21.202 0.0993593 18.3903C0.429497 16.4645 1.01824 14.6515 2.30028 13.1246C2.46535 12.9293 2.57539 12.5358 2.89177 12.6294C3.28519 12.7504 3.06235 13.1521 3.09536 13.4327C3.10316 13.6161 3.10132 13.7998 3.08986 13.983Z" fill="#4CD137"/>
<path d="M40.4835 21.0578C40.4064 23.3687 39.5343 25.3908 38.2165 27.2478C38.079 27.4377 37.9249 27.7018 37.6443 27.6275C37.3637 27.5532 37.4737 27.2698 37.4902 27.0773C37.8451 22.9753 35.4159 20.2819 31.7981 19.209C30.5381 18.8376 29.2368 18.6587 28.0015 18.1635C23.5474 16.3505 22.2846 10.972 23.7317 7.17546C23.8033 6.99113 23.839 6.71602 24.1114 6.71877C24.3838 6.72152 24.403 6.99389 24.4608 7.18371C25.3742 10.3118 27.7126 12.0175 30.5133 13.2555C32.23 14.0148 34.0898 14.2322 35.878 14.7604C38.8796 15.6517 40.5522 17.9407 40.4835 21.0578Z" fill="#4CD137"/>
<path d="M14.111 37.3865C17.6462 37.3122 20.3038 35.1195 21.264 31.5073C21.6079 30.2142 21.7509 28.8634 22.3644 27.6364C23.1208 26.0682 24.3589 24.7831 25.8978 23.9689C27.4367 23.1546 29.1957 22.8539 30.9177 23.1108C31.7373 23.1865 32.5463 23.3507 33.3305 23.6005C33.5148 23.6665 33.6744 23.7353 33.6854 23.9581C33.6964 24.181 33.5588 24.2332 33.4103 24.2745C28.5408 25.8289 27.0139 29.8346 26.0537 34.2667C25.6383 36.1925 24.9533 38 23.3026 39.205C21.7041 40.3687 19.8609 40.5805 17.9571 40.1844C16.3313 39.8772 14.7917 39.2201 13.4452 38.2586C13.1949 38.077 12.7327 37.9504 12.895 37.5488C13.0325 37.2104 13.4452 37.4552 13.7203 37.414C13.8497 37.3954 13.9803 37.3862 14.111 37.3865Z" fill="#4CD137"/>
<path d="M20.8513 0.0146175C23.3851 0.00086175 25.4347 0.853717 27.3165 2.20178C27.5091 2.33934 27.8117 2.44388 27.7209 2.7355C27.6301 3.02712 27.3055 2.89782 27.0827 2.89232C24.359 2.80428 22.1086 3.70116 20.5294 6.01762C19.5335 7.47023 19.1951 9.14568 18.81 10.8129C17.6682 15.7842 13.415 17.6605 9.18094 17.1405C8.48511 17.0669 7.80279 16.8975 7.15335 16.6371C6.98828 16.5683 6.78194 16.516 6.7957 16.2877C6.80945 16.0593 7.03505 16.0428 7.20562 15.996C11.0105 14.8956 12.7794 11.9491 13.9129 8.47715C14.3558 7.11533 14.5924 5.68748 15.0134 4.32016C15.7864 1.86889 17.9488 -0.19447 20.8513 0.0146175Z" fill="#4CD137"/>
<path d="M8.12995 10.5024C7.37614 11.7652 7.16705 13.1546 6.9112 14.5879C6.29769 14.3128 6.33345 13.7901 6.19315 13.3801C4.72128 9.08011 5.91528 5.831 9.86043 3.49253C11.3887 2.6392 13.0439 2.03639 14.763 1.70703C14.2127 2.49936 13.5442 3.18165 13.1618 4.07852C12.5098 5.61366 12.2072 7.22858 11.8935 8.84901C11.4974 10.8821 10.65 12.6786 9.03508 14.0459C8.85351 14.2 8.69944 14.4421 8.41332 14.3513C8.05567 14.2385 8.13821 13.9139 8.13821 13.6553C8.12445 12.6043 8.12995 11.5561 8.12995 10.5024Z" fill="#4CD137"/>
<path d="M26.1141 6.57613C28.5434 5.51144 30.9507 5.02173 33.4184 6.24324C34.291 6.69207 35.0639 7.31247 35.6909 8.06725C37.1187 9.71794 37.9798 11.6685 38.5191 13.7704C38.5603 13.9355 38.6704 14.139 38.442 14.2491C38.2632 14.3371 38.1669 14.1555 38.0651 14.062C36.4832 12.7222 34.5574 12.2352 32.5876 11.8969C30.2766 11.5007 28.1252 10.8157 26.5351 8.97238C26.3672 8.7798 26.0344 8.60373 26.1802 8.2956C26.326 7.98747 26.6699 8.11402 26.9285 8.11127C28.1335 8.09752 29.3385 8.11127 30.549 8.03424C29.1624 7.26942 27.5695 7.12361 26.1141 6.57613Z" fill="#4CD137"/>
<path d="M32.3868 30.1532C32.9595 29.106 33.3502 27.9693 33.5423 26.7913C33.589 26.5519 33.5918 26.2411 33.8752 26.2025C34.1585 26.164 34.1805 26.5189 34.2576 26.7528C35.1957 29.5039 35.2892 32.1588 33.3194 34.555C31.9769 36.1865 30.1859 37.1659 28.2271 37.8344C27.6768 38.0215 26.9533 38.624 26.5406 38.1288C26.194 37.7078 26.989 37.1906 27.2394 36.7009C27.9739 35.2621 28.3178 33.7214 28.615 32.156C29.0001 30.0486 29.6521 28.0678 31.2781 26.5519C31.5202 26.3236 31.7705 26.0017 32.1364 26.1448C32.5023 26.2878 32.384 26.7335 32.3895 27.0499C32.3978 27.9963 32.3868 28.9564 32.3868 30.1532Z" fill="#4CD137"/>
<path d="M2.2535 26.1504C4.09126 27.6415 6.29768 28.1587 8.55638 28.5329C10.5234 28.8603 12.3034 29.5866 13.7423 31.0089C13.9899 31.251 14.3861 31.5591 14.243 31.9058C14.0999 32.2524 13.5992 32.1424 13.2471 32.1616C12.0668 32.2249 10.8893 32.1204 9.68435 32.0929C11.1397 32.9842 12.8069 33.1933 14.5759 33.6308C13.3884 34.3101 12.0481 34.6773 10.6803 34.6982C7.69527 34.8495 5.53286 33.4217 4.00048 30.9814C3.0926 29.5343 2.34979 27.9992 2.13245 26.2604L2.2535 26.1504Z" fill="#4CD137"/>
<path d="M2.13242 26.2553C2.03337 26.1507 1.90407 26.0159 2.0829 25.9196C2.18194 25.8674 2.23146 26.0434 2.25347 26.1507L2.13242 26.2553Z" fill="#4CD137"/>
</g>
</g>
<path d="M50.5028 10.6103H57.2723V32.2157H50.5028V10.6103ZM72.3748 14.8834C74.347 14.8834 75.8869 15.5467 76.9944 16.8734C78.1078 18.1941 78.6646 19.9827 78.6646 22.2392V32.2157H71.9217V23.0921C71.9217 22.2807 71.7026 21.6351 71.2643 21.1554C70.8261 20.6757 70.2397 20.4358 69.5053 20.4358C68.7532 20.4358 68.1639 20.6757 67.7374 21.1554C67.311 21.6351 67.0978 22.2807 67.0978 23.0921V32.2157H60.3283V15.0078H67.0978V17.6285C67.6249 16.8171 68.3327 16.1567 69.221 15.6474C70.1035 15.1381 71.1548 14.8834 72.3748 14.8834ZM91.5017 13.7907C91.1404 13.7492 90.8887 13.7285 90.7466 13.7285C90.2372 13.7285 89.8493 13.8233 89.5828 14.0128C89.3163 14.2082 89.1327 14.5399 89.032 15.0078H91.5017V20.649H88.9698V32.2157H82.2003V20.649H80.3702V15.0078H82.2003C82.2418 12.769 82.9495 11.0337 84.3236 9.80184C85.6976 8.57587 87.6224 7.96289 90.098 7.96289C90.3883 7.96289 90.8561 7.98362 91.5017 8.02508V13.7907ZM93.3406 9.64193H100.11V32.2157H93.3406V9.64193ZM114.6 15.0078H121.378V32.2157H114.6V29.595C114.073 30.4064 113.368 31.0668 112.485 31.5761C111.597 32.0855 110.543 32.3401 109.323 32.3401C107.35 32.3401 105.811 31.6798 104.703 30.359C103.596 29.0324 103.042 27.2408 103.042 24.9843V15.0078H109.785V24.1315C109.785 24.9429 110.001 25.5884 110.433 26.0681C110.871 26.5479 111.458 26.7877 112.192 26.7877C112.944 26.7877 113.534 26.5479 113.96 26.0681C114.386 25.5884 114.6 24.9429 114.6 24.1315V15.0078ZM141.082 23.4563C141.082 23.9242 141.053 24.3713 140.994 24.7978H130.102C130.203 26.2843 130.822 27.0276 131.959 27.0276C132.693 27.0276 133.223 26.693 133.549 26.0237H140.718C140.475 27.2438 139.963 28.3365 139.181 29.3019C138.394 30.2672 137.407 31.0312 136.223 31.5939C135.032 32.1506 133.724 32.429 132.296 32.429C130.591 32.429 129.071 32.0736 127.739 31.3629C126.406 30.6522 125.367 29.6306 124.621 28.298C123.88 26.9654 123.51 25.4048 123.51 23.6162C123.51 21.8217 123.88 20.2581 124.621 18.9255C125.367 17.593 126.406 16.5713 127.739 15.8606C129.071 15.1499 130.591 14.7946 132.296 14.7946C134.008 14.7946 135.53 15.144 136.863 15.8428C138.195 16.5476 139.232 17.5515 139.972 18.8545C140.712 20.1574 141.082 21.6914 141.082 23.4563ZM130.191 21.8394H134.224C134.224 21.2709 134.04 20.8385 133.673 20.5424C133.306 20.2522 132.847 20.1071 132.296 20.1071C131.1 20.1071 130.398 20.6845 130.191 21.8394ZM149.993 18.1793C150.686 17.1843 151.53 16.3877 152.525 15.7895C153.52 15.1854 154.556 14.8834 155.634 14.8834V22.1148H153.715C152.436 22.1148 151.494 22.3399 150.89 22.79C150.292 23.2342 149.993 24.0278 149.993 25.1709V32.2157H143.223V15.0078H149.993V18.1793ZM156.549 23.6162C156.549 21.8039 156.86 20.2315 157.482 18.8989C158.104 17.5663 158.954 16.5476 160.032 15.8428C161.109 15.144 162.321 14.7946 163.665 14.7946C164.784 14.7946 165.75 15.0226 166.561 15.4786C167.373 15.9406 167.991 16.5654 168.418 17.3531V15.0078H175.161V32.2157H168.418V29.8704C167.991 30.6581 167.373 31.2829 166.561 31.7449C165.75 32.2009 164.784 32.429 163.665 32.429C162.321 32.429 161.109 32.0795 160.032 31.3807C158.954 30.6759 158.104 29.6572 157.482 28.3246C156.86 26.9921 156.549 25.4226 156.549 23.6162ZM168.418 23.6162C168.418 22.6982 168.184 21.9845 167.716 21.4752C167.248 20.9659 166.65 20.7112 165.922 20.7112C165.187 20.7112 164.586 20.9659 164.118 21.4752C163.65 21.9845 163.416 22.6982 163.416 23.6162C163.416 24.5283 163.65 25.239 164.118 25.7483C164.586 26.2577 165.187 26.5123 165.922 26.5123C166.65 26.5123 167.248 26.2577 167.716 25.7483C168.184 25.239 168.418 24.5283 168.418 23.6162ZM200 32.2157H191.978L188.007 26.6012L184.711 32.2157H177L184.107 21.0754L176.689 10.6103H184.711L188.531 16.0116L191.702 10.6103H199.422L192.431 21.5374L200 32.2157Z" fill="#2B2F23"/>
<defs>
<clipPath id="clip0_2221_37110">
<rect width="40.4954" height="40.3921" fill="white"/>
</clipPath>
<clipPath id="clip1_2221_37110">
<rect width="40.5305" height="40.4471" fill="white"/>
</clipPath>
</defs>
</svg>
