<svg width="275" height="40" viewBox="0 0 275 40" fill="none" xmlns="http://www.w3.org/2000/svg">
<path d="M6.05466 34.2733C0.0917683 28.4812 -1.65414 19.6274 1.65612 12.0638C2.7243 13.1344 3.91832 14.2268 5.07651 15.2863C9.35772 19.2039 13.7847 23.2553 13.2146 27.2243C12.8495 29.7576 10.5072 32.0651 6.05466 34.2733Z" fill="#9AE600"/>
<path d="M40.2305 17.1122C38.4922 16.8513 36.7533 16.6597 35.0675 16.474C29.0967 15.817 23.9398 15.2498 22.2199 12.0377C20.9411 9.65027 21.6693 5.85453 24.4447 0.439819C28.5086 1.29278 32.1584 3.33955 35.0124 6.36688C37.8405 9.36886 39.6402 13.0768 40.2305 17.1122Z" fill="#9AE600"/>
<path d="M11.4394 16.3414C8.91635 16.3407 5.90825 14.5386 2.24731 10.8318C3.94909 7.5716 6.51301 4.8449 9.6699 2.93709C12.8486 1.01574 16.4965 0 20.2203 0C21.1843 0 22.1576 0.0694785 23.1172 0.205813C22.3139 1.7859 21.5669 3.44988 20.843 5.06273C18.2393 10.8631 15.779 16.3412 11.4403 16.3412C11.4403 16.3412 11.4405 16.3414 11.4394 16.3414Z" fill="#9AE600"/>
<path d="M29.9137 37.5602C29.6744 36.1001 29.3795 34.6323 29.0946 33.2086C28.0375 27.942 27.0397 22.9669 29.2447 20.2756C30.4739 18.7749 32.6255 18.0462 35.8248 18.0462C37.1512 18.0462 38.6821 18.1764 40.3769 18.4318C40.9998 26.322 36.9194 33.7706 29.9137 37.5602Z" fill="#9AE600"/>
<path d="M20.2487 40C15.3944 40 10.7341 38.2989 7.07581 35.2005C8.27245 34.6025 9.50317 33.9349 10.6965 33.2877C14.5535 31.1942 18.5421 29.029 21.7512 29.029C23.5203 29.029 24.9206 29.6777 26.0324 31.0122C27.2721 32.5005 28.1714 34.9062 28.7041 38.1636C26.044 39.3819 23.2002 40 20.2487 40Z" fill="#9AE600"/>
<path opacity="0.5" d="M2.30347 24.9766C3.05921 27.7502 4.45009 30.2903 6.38652 32.4273C6.61484 32.3037 6.83376 32.1789 7.04678 32.0542C4.87744 30.0598 3.27747 27.6224 2.30347 24.9766Z" fill="white"/>
<path opacity="0.5" d="M34.1884 8.11871C35.8327 10.2406 36.969 12.6715 37.5375 15.2791C37.7346 15.3023 37.9306 15.3257 38.1283 15.3499C37.394 12.6848 36.0547 10.2234 34.1884 8.11871Z" fill="white"/>
<path opacity="0.5" d="M31.1879 34.9635C31.1025 34.529 31.017 34.0994 30.9314 33.6719C35.1696 30.416 37.7547 25.5219 38.0372 20.2178C38.2485 20.2379 38.4606 20.2595 38.6714 20.2831C38.6749 23.3157 37.9085 26.3201 36.4545 28.9773C35.1562 31.3496 33.3843 33.3631 31.1879 34.9635Z" fill="white"/>
<path opacity="0.5" d="M20.2488 38.5235C16.7565 38.5235 13.3617 37.5622 10.4185 35.7413C10.614 35.6362 10.8082 35.5312 11.0022 35.4258C13.6405 36.7927 16.616 37.5146 19.6123 37.5146C21.9665 37.5146 24.2551 37.0824 26.4194 36.2279C26.5208 36.5974 26.615 36.9821 26.7 37.3734C24.6456 38.1366 22.4753 38.5235 20.2488 38.5235Z" fill="white"/>
<path d="M58.7347 32V8.72727H73.6438V12.2614H62.9506V18.5795H72.621V22.1136H62.9506V32H58.7347ZM76.6628 32V14.5455H80.7765V32H76.6628ZM78.731 12.0682C78.0795 12.0682 77.5189 11.8523 77.0492 11.4205C76.5795 10.9811 76.3447 10.4545 76.3447 9.84091C76.3447 9.2197 76.5795 8.69318 77.0492 8.26136C77.5189 7.82197 78.0795 7.60227 78.731 7.60227C79.3901 7.60227 79.9507 7.82197 80.4128 8.26136C80.8825 8.69318 81.1174 9.2197 81.1174 9.84091C81.1174 10.4545 80.8825 10.9811 80.4128 11.4205C79.9507 11.8523 79.3901 12.0682 78.731 12.0682ZM88.4802 21.7727V32H84.3666V14.5455H88.2984V17.5114H88.503C88.9045 16.5341 89.5446 15.7576 90.4234 15.1818C91.3098 14.6061 92.4045 14.3182 93.7075 14.3182C94.912 14.3182 95.9613 14.5758 96.8552 15.0909C97.7567 15.6061 98.4537 16.3523 98.9461 17.3295C99.4461 18.3068 99.6924 19.4924 99.6848 20.8864V32H95.5711V21.5227C95.5711 20.3561 95.2681 19.4432 94.662 18.7841C94.0636 18.125 93.234 17.7955 92.1734 17.7955C91.4537 17.7955 90.8136 17.9545 90.253 18.2727C89.6999 18.5833 89.2643 19.0341 88.9461 19.625C88.6355 20.2159 88.4802 20.9318 88.4802 21.7727ZM109.704 32.3068C108.333 32.3068 107.105 31.9545 106.022 31.25C104.939 30.5455 104.083 29.5227 103.454 28.1818C102.825 26.8409 102.511 25.2121 102.511 23.2955C102.511 21.3561 102.829 19.7197 103.465 18.3864C104.109 17.0455 104.977 16.0341 106.068 15.3523C107.158 14.6629 108.374 14.3182 109.715 14.3182C110.738 14.3182 111.579 14.4924 112.238 14.8409C112.897 15.1818 113.42 15.5947 113.806 16.0795C114.193 16.5568 114.492 17.0076 114.704 17.4318H114.874V8.72727H118.999V32H114.954V29.25H114.704C114.492 29.6742 114.185 30.125 113.783 30.6023C113.382 31.072 112.852 31.4735 112.193 31.8068C111.533 32.1402 110.704 32.3068 109.704 32.3068ZM110.852 28.9318C111.723 28.9318 112.465 28.697 113.079 28.2273C113.693 27.75 114.158 27.0871 114.477 26.2386C114.795 25.3902 114.954 24.4015 114.954 23.2727C114.954 22.1439 114.795 21.1629 114.477 20.3295C114.166 19.4962 113.704 18.8485 113.09 18.3864C112.484 17.9242 111.738 17.6932 110.852 17.6932C109.935 17.6932 109.17 17.9318 108.556 18.4091C107.943 18.8864 107.48 19.5455 107.17 20.3864C106.859 21.2273 106.704 22.1894 106.704 23.2727C106.704 24.3636 106.859 25.3371 107.17 26.1932C107.488 27.0417 107.954 27.7121 108.568 28.2045C109.189 28.6894 109.95 28.9318 110.852 28.9318ZM122.925 32V8.72727H131.834C133.516 8.72727 134.913 8.99242 136.027 9.52273C137.148 10.0455 137.985 10.7614 138.538 11.6705C139.099 12.5795 139.379 13.6098 139.379 14.7614C139.379 15.7083 139.197 16.5189 138.834 17.1932C138.47 17.8598 137.981 18.4015 137.368 18.8182C136.754 19.2348 136.069 19.5341 135.311 19.7159V19.9432C136.137 19.9886 136.928 20.2424 137.686 20.7045C138.451 21.1591 139.076 21.803 139.561 22.6364C140.046 23.4697 140.288 24.4773 140.288 25.6591C140.288 26.8636 139.997 27.947 139.413 28.9091C138.83 29.8636 137.951 30.6174 136.777 31.1705C135.603 31.7235 134.125 32 132.345 32H122.925ZM127.141 28.4773H131.675C133.205 28.4773 134.307 28.1856 134.981 27.6023C135.663 27.0114 136.004 26.2538 136.004 25.3295C136.004 24.6402 135.834 24.0189 135.493 23.4659C135.152 22.9053 134.667 22.4659 134.038 22.1477C133.41 21.822 132.66 21.6591 131.788 21.6591H127.141V28.4773ZM127.141 18.625H131.311C132.038 18.625 132.694 18.4924 133.277 18.2273C133.86 17.9545 134.319 17.572 134.652 17.0795C134.993 16.5795 135.163 15.9886 135.163 15.3068C135.163 14.4053 134.845 13.6629 134.209 13.0795C133.58 12.4962 132.644 12.2045 131.402 12.2045H127.141V18.625ZM143.134 32V14.5455H147.123V17.4545H147.305C147.623 16.447 148.168 15.6705 148.941 15.125C149.721 14.572 150.611 14.2955 151.611 14.2955C151.839 14.2955 152.092 14.3068 152.373 14.3295C152.661 14.3447 152.899 14.3712 153.089 14.4091V18.1932C152.914 18.1326 152.638 18.0795 152.259 18.0341C151.888 17.9811 151.528 17.9545 151.18 17.9545C150.43 17.9545 149.755 18.1174 149.157 18.4432C148.566 18.7614 148.1 19.2045 147.759 19.7727C147.418 20.3409 147.248 20.9962 147.248 21.7386V32H143.134ZM159.892 32.3523C158.786 32.3523 157.79 32.1553 156.903 31.7614C156.024 31.3598 155.327 30.7689 154.812 29.9886C154.305 29.2083 154.051 28.2462 154.051 27.1023C154.051 26.1174 154.233 25.303 154.596 24.6591C154.96 24.0152 155.456 23.5 156.085 23.1136C156.714 22.7273 157.422 22.4356 158.21 22.2386C159.005 22.0341 159.827 21.8864 160.676 21.7955C161.699 21.6894 162.528 21.5947 163.165 21.5114C163.801 21.4205 164.263 21.2841 164.551 21.1023C164.846 20.9129 164.994 20.6212 164.994 20.2273V20.1591C164.994 19.303 164.74 18.6402 164.233 18.1705C163.725 17.7008 162.994 17.4659 162.04 17.4659C161.032 17.4659 160.233 17.6856 159.642 18.125C159.058 18.5644 158.665 19.0833 158.46 19.6818L154.619 19.1364C154.922 18.0758 155.422 17.1894 156.119 16.4773C156.816 15.7576 157.668 15.2197 158.676 14.8636C159.683 14.5 160.797 14.3182 162.017 14.3182C162.858 14.3182 163.695 14.4167 164.528 14.6136C165.362 14.8106 166.123 15.1364 166.812 15.5909C167.502 16.0379 168.055 16.6477 168.471 17.4205C168.896 18.1932 169.108 19.1591 169.108 20.3182V32H165.153V29.6023H165.017C164.767 30.0871 164.415 30.5417 163.96 30.9659C163.513 31.3826 162.949 31.7197 162.267 31.9773C161.593 32.2273 160.801 32.3523 159.892 32.3523ZM160.96 29.3295C161.786 29.3295 162.502 29.1667 163.108 28.8409C163.714 28.5076 164.18 28.0682 164.505 27.5227C164.839 26.9773 165.005 26.3826 165.005 25.7386V23.6818C164.877 23.7879 164.657 23.8864 164.346 23.9773C164.043 24.0682 163.702 24.1477 163.324 24.2159C162.945 24.2841 162.57 24.3447 162.199 24.3977C161.827 24.4508 161.505 24.4962 161.233 24.5341C160.619 24.6174 160.07 24.7538 159.585 24.9432C159.1 25.1326 158.718 25.3977 158.437 25.7386C158.157 26.072 158.017 26.5038 158.017 27.0341C158.017 27.7917 158.293 28.3636 158.846 28.75C159.399 29.1364 160.104 29.3295 160.96 29.3295ZM176.718 21.7727V32H172.604V14.5455H176.536V17.5114H176.74C177.142 16.5341 177.782 15.7576 178.661 15.1818C179.547 14.6061 180.642 14.3182 181.945 14.3182C183.15 14.3182 184.199 14.5758 185.093 15.0909C185.994 15.6061 186.691 16.3523 187.184 17.3295C187.684 18.3068 187.93 19.4924 187.922 20.8864V32H183.809V21.5227C183.809 20.3561 183.506 19.4432 182.9 18.7841C182.301 18.125 181.472 17.7955 180.411 17.7955C179.691 17.7955 179.051 17.9545 178.49 18.2727C177.937 18.5833 177.502 19.0341 177.184 19.625C176.873 20.2159 176.718 20.9318 176.718 21.7727ZM197.941 32.3068C196.57 32.3068 195.343 31.9545 194.26 31.25C193.176 30.5455 192.32 29.5227 191.691 28.1818C191.063 26.8409 190.748 25.2121 190.748 23.2955C190.748 21.3561 191.066 19.7197 191.703 18.3864C192.347 17.0455 193.214 16.0341 194.305 15.3523C195.396 14.6629 196.612 14.3182 197.953 14.3182C198.975 14.3182 199.816 14.4924 200.475 14.8409C201.135 15.1818 201.657 15.5947 202.044 16.0795C202.43 16.5568 202.729 17.0076 202.941 17.4318H203.112V8.72727H207.237V32H203.191V29.25H202.941C202.729 29.6742 202.422 30.125 202.021 30.6023C201.619 31.072 201.089 31.4735 200.43 31.8068C199.771 32.1402 198.941 32.3068 197.941 32.3068ZM199.089 28.9318C199.96 28.9318 200.703 28.697 201.316 28.2273C201.93 27.75 202.396 27.0871 202.714 26.2386C203.032 25.3902 203.191 24.4015 203.191 23.2727C203.191 22.1439 203.032 21.1629 202.714 20.3295C202.403 19.4962 201.941 18.8485 201.328 18.3864C200.722 17.9242 199.975 17.6932 199.089 17.6932C198.172 17.6932 197.407 17.9318 196.794 18.4091C196.18 18.8864 195.718 19.5455 195.407 20.3864C195.097 21.2273 194.941 22.1894 194.941 23.2727C194.941 24.3636 195.097 25.3371 195.407 26.1932C195.725 27.0417 196.191 27.7121 196.805 28.2045C197.426 28.6894 198.188 28.9318 199.089 28.9318ZM219.821 14.5455V17.7273H209.503V14.5455H219.821ZM212.083 32V12.8977C212.083 11.7235 212.325 10.7462 212.81 9.96591C213.302 9.18561 213.961 8.60227 214.787 8.21591C215.613 7.82954 216.53 7.63636 217.537 7.63636C218.249 7.63636 218.882 7.69318 219.435 7.80682C219.988 7.92045 220.397 8.02273 220.662 8.11364L219.844 11.2955C219.67 11.2424 219.45 11.1894 219.185 11.1364C218.92 11.0758 218.624 11.0455 218.299 11.0455C217.533 11.0455 216.992 11.2311 216.674 11.6023C216.363 11.9659 216.208 12.4886 216.208 13.1705V32H212.083ZM226.832 32.3523C225.726 32.3523 224.73 32.1553 223.843 31.7614C222.964 31.3598 222.267 30.7689 221.752 29.9886C221.245 29.2083 220.991 28.2462 220.991 27.1023C220.991 26.1174 221.173 25.303 221.536 24.6591C221.9 24.0152 222.396 23.5 223.025 23.1136C223.654 22.7273 224.362 22.4356 225.15 22.2386C225.945 22.0341 226.767 21.8864 227.616 21.7955C228.639 21.6894 229.468 21.5947 230.105 21.5114C230.741 21.4205 231.203 21.2841 231.491 21.1023C231.786 20.9129 231.934 20.6212 231.934 20.2273V20.1591C231.934 19.303 231.68 18.6402 231.173 18.1705C230.665 17.7008 229.934 17.4659 228.98 17.4659C227.972 17.4659 227.173 17.6856 226.582 18.125C225.998 18.5644 225.605 19.0833 225.4 19.6818L221.559 19.1364C221.862 18.0758 222.362 17.1894 223.059 16.4773C223.756 15.7576 224.608 15.2197 225.616 14.8636C226.623 14.5 227.737 14.3182 228.957 14.3182C229.798 14.3182 230.635 14.4167 231.468 14.6136C232.302 14.8106 233.063 15.1364 233.752 15.5909C234.442 16.0379 234.995 16.6477 235.411 17.4205C235.836 18.1932 236.048 19.1591 236.048 20.3182V32H232.093V29.6023H231.957C231.707 30.0871 231.355 30.5417 230.9 30.9659C230.453 31.3826 229.889 31.7197 229.207 31.9773C228.533 32.2273 227.741 32.3523 226.832 32.3523ZM227.9 29.3295C228.726 29.3295 229.442 29.1667 230.048 28.8409C230.654 28.5076 231.12 28.0682 231.445 27.5227C231.779 26.9773 231.945 26.3826 231.945 25.7386V23.6818C231.817 23.7879 231.597 23.8864 231.286 23.9773C230.983 24.0682 230.642 24.1477 230.264 24.2159C229.885 24.2841 229.51 24.3447 229.139 24.3977C228.767 24.4508 228.445 24.4962 228.173 24.5341C227.559 24.6174 227.01 24.7538 226.525 24.9432C226.04 25.1326 225.658 25.3977 225.377 25.7386C225.097 26.072 224.957 26.5038 224.957 27.0341C224.957 27.7917 225.233 28.3636 225.786 28.75C226.339 29.1364 227.044 29.3295 227.9 29.3295ZM247.158 32.3409C245.415 32.3409 243.919 31.9583 242.669 31.1932C241.427 30.428 240.468 29.3712 239.794 28.0227C239.127 26.6667 238.794 25.1061 238.794 23.3409C238.794 21.5682 239.135 20.0038 239.817 18.6477C240.499 17.2841 241.461 16.2235 242.703 15.4659C243.953 14.7008 245.43 14.3182 247.135 14.3182C248.552 14.3182 249.805 14.5795 250.896 15.1023C251.995 15.6174 252.87 16.3485 253.521 17.2955C254.173 18.2348 254.544 19.3333 254.635 20.5909H250.703C250.544 19.75 250.165 19.0492 249.567 18.4886C248.976 17.9205 248.184 17.6364 247.192 17.6364C246.351 17.6364 245.612 17.8636 244.976 18.3182C244.34 18.7652 243.843 19.4091 243.487 20.25C243.139 21.0909 242.965 22.0985 242.965 23.2727C242.965 24.4621 243.139 25.4848 243.487 26.3409C243.836 27.1894 244.324 27.8447 244.953 28.3068C245.59 28.7614 246.336 28.9886 247.192 28.9886C247.798 28.9886 248.34 28.875 248.817 28.6477C249.302 28.4129 249.707 28.0758 250.033 27.6364C250.358 27.197 250.582 26.6629 250.703 26.0341H254.635C254.537 27.2689 254.173 28.3636 253.544 29.3182C252.915 30.2652 252.059 31.0076 250.976 31.5455C249.893 32.0758 248.62 32.3409 247.158 32.3409ZM265.1 32.3409C263.35 32.3409 261.839 31.9773 260.566 31.25C259.301 30.5152 258.327 29.4773 257.646 28.1364C256.964 26.7879 256.623 25.2008 256.623 23.375C256.623 21.5795 256.964 20.0038 257.646 18.6477C258.335 17.2841 259.297 16.2235 260.532 15.4659C261.767 14.7008 263.218 14.3182 264.884 14.3182C265.96 14.3182 266.975 14.4924 267.93 14.8409C268.892 15.1818 269.74 15.7121 270.475 16.4318C271.218 17.1515 271.801 18.0682 272.225 19.1818C272.649 20.2879 272.861 21.6061 272.861 23.1364V24.3977H258.555V21.625H268.918C268.911 20.8371 268.74 20.1364 268.407 19.5227C268.074 18.9015 267.608 18.4129 267.009 18.0568C266.418 17.7008 265.729 17.5227 264.941 17.5227C264.1 17.5227 263.361 17.7273 262.725 18.1364C262.089 18.5379 261.593 19.0682 261.236 19.7273C260.888 20.3788 260.71 21.0947 260.702 21.875V24.2955C260.702 25.3106 260.888 26.1818 261.259 26.9091C261.63 27.6288 262.149 28.1818 262.816 28.5682C263.483 28.947 264.263 29.1364 265.157 29.1364C265.755 29.1364 266.297 29.053 266.782 28.8864C267.267 28.7121 267.687 28.4583 268.043 28.125C268.399 27.7917 268.668 27.3788 268.85 26.8864L272.691 27.3182C272.449 28.3333 271.986 29.2197 271.305 29.9773C270.63 30.7273 269.767 31.3106 268.714 31.7273C267.661 32.1364 266.456 32.3409 265.1 32.3409Z" fill="#2B2F23"/>
</svg>
