<svg width="193" height="232" viewBox="0 0 193 232" fill="none" xmlns="http://www.w3.org/2000/svg">
<g clip-path="url(#clip0_1006_23854)">
<path d="M147.524 207.461C147.729 207.461 147.913 207.322 147.963 207.115C148.88 203.289 151.247 199.978 154.597 197.879C155.099 197.564 154.629 196.798 154.118 197.114C150.571 199.338 148.058 202.846 147.085 206.905C147.017 207.189 147.234 207.461 147.524 207.461Z" fill="#2B2F23"/>
<path d="M140.079 200.807C139.991 201.04 140.109 201.3 140.343 201.388C140.572 201.475 140.835 201.36 140.923 201.125C142.237 197.637 144.753 194.974 147.83 193.418C148.052 193.306 148.142 193.034 148.029 192.812C147.916 192.589 147.644 192.5 147.423 192.613C145.904 193.381 144.539 194.387 143.363 195.604C141.921 197.097 140.817 198.848 140.079 200.807Z" fill="#2B2F23"/>
<path d="M18.2248 75.2752C14.8449 76.4339 11.8335 78.1714 8.07603 81.8901C-5.86672 95.6731 0.1591 118.538 18.9715 120.779C18.3392 123.25 17.9812 125.866 17.9283 128.577C17.9246 128.734 17.9299 128.726 18.7792 130.327C18.9021 141.853 24.5561 163.959 39.2354 170.275C41.8732 176.785 43.4569 180.41 46.4069 187.412C45.2502 191.295 44.9236 195.011 37.5016 199.537C34.5537 201.344 30.3486 203.314 27.6563 205.472C20.9751 210.815 17.7728 221.627 24.4172 227.452L24.4145 227.457C32.0447 234.417 84.0705 232.002 93.5871 227.757C93.5872 227.757 93.5874 227.757 93.5875 227.757C99.5883 225.097 102.51 219.204 102.685 212.808C102.86 206.362 99.7838 197.665 96.743 192.764C95.8959 191.406 96.1064 191.791 94.0782 187.218C94.0523 187.159 94.0139 187.111 93.969 187.07C93.9333 186.97 84.8866 161.715 84.9194 161.807C86.4529 160.474 87.863 159.017 89.1315 157.469C93.2169 168.247 95.8281 177.711 97.3156 187.173C97.3499 187.393 97.5402 187.554 97.7613 187.554C97.9693 187.554 99.2839 187.482 99.6095 187.463C99.9492 188.547 101.542 193.588 101.57 193.679C101.57 193.679 101.571 193.679 101.571 193.679L105.191 205.238C104.319 209.667 105.142 214.501 107.009 218.21C109.386 222.909 114.241 224.887 119.011 224.034C192.543 225.883 172.027 225.333 179.145 225.636C183.917 225.636 188.643 223.39 190.774 219.173C192.403 215.952 192.061 212.436 190.76 209.083C188.153 202.486 180.334 198.523 174.333 199.431C171.975 199.79 170.372 201.944 159.548 197.902C152.904 195.428 149.569 194.187 148.703 191.789C148.496 191.188 147.908 189.582 146.929 187.666C145.928 185.693 145.188 184.486 143.04 184.339C142.607 182.088 142.309 180.603 141.863 178.284C142.691 177.962 143.045 177.819 143.211 177.753C143.429 177.667 143.544 177.429 143.477 177.204L131.222 136.171C133.068 134.22 135.005 130.518 135.276 127.769C135.875 122.395 133.01 118.239 125.491 105C125.186 104.491 122.538 97.4579 122.503 97.3669C127.916 98.49 136.848 98.9992 141.123 97.6689C147.481 100.875 155.837 99.5661 160.797 95.6505C164.029 94.2646 166.6 91.7435 168.303 90.0738C185.741 72.9635 184.658 41.9025 168.921 22.3143C166.509 19.3107 163.775 15.9064 163.521 10.9776C163.305 6.90918 164.895 3.32495 162.613 1.19187C161.217 -0.122693 158.871 -0.260937 157.115 0.345312C152.448 1.94866 151.222 9.64129 152.684 14.4974C149.743 15.5363 147.885 16.6447 146.076 18.0194C144.094 19.4526 141.823 21.0306 141.519 23.4644C141.183 26.1653 143.232 28.4315 144.27 29.3895C142.144 32.1356 143.02 35.7139 145.98 37.2672C144.839 39.8987 146.029 42.865 148.81 43.9472C149.408 47.0176 151.932 47.9397 152.002 48.0299C150.856 50.1663 149.085 53.3859 146.808 57.2781C143.873 57.9998 140.684 59.8334 138.007 62.2192C137.975 62.2218 137.943 62.2222 137.911 62.226C127.827 60.9179 124.418 58.0603 112.743 54.1796C111.538 51.4446 109.524 49.6009 107.428 48.6562C105.501 47.7905 101.887 47.2116 100.636 47.1318C100.734 46.6592 100.773 46.3178 100.763 45.7049C104.529 45.6091 106.131 41.8494 104.67 39.21C104.162 38.2747 103.146 37.3552 102.088 37.1504C102.9 33.6378 100.17 30.8793 96.8899 29.4529C97.3408 24.7081 91.4166 21.2319 85.6026 24.8113C84.1018 25.7342 82.5152 27.2442 81.56 28.3504C80.9689 29.0395 80.994 28.972 79.8219 28.8918C70.2813 28.2397 68.0153 38.3422 74.6621 40.339C71.6956 40.331 71.0522 44.5558 72.5049 46.8979C72.3472 46.9111 72.1952 46.93 72.0412 46.9466C69.9695 39.5136 62.4365 12.458 62.2668 11.8791C61.1989 8.21727 56.9118 6.56556 53.6205 8.67454C53.527 8.73531 52.7519 9.23911 52.8453 9.17846L38.5021 18.4982C36.0319 20.1028 34.9079 23.0918 35.706 25.9367L40.0657 41.2952C37.8201 42.8357 37.4008 45.3712 37.4467 48.0797C37.3782 48.4458 38.1202 53.4021 33.4621 62.5744C27.9116 66.2043 22.8397 70.4012 18.2248 75.2752ZM36.688 57.4129C37.4446 57.3712 37.2024 55.7316 45.0333 49.3513C47.1019 47.7358 49.3476 46.5656 51.9488 45.9153C53.762 45.4495 67.4075 45.3258 68.6795 46.9138L69.012 48.1084C68.9956 48.9153 68.6397 49.6535 68.6168 49.6993C67.8697 51.2167 66.1766 51.8303 64.7883 52.1945C53.1536 55.1286 53.8951 54.9296 53.7556 55.0729C50.3963 56.1638 45.8092 57.1886 43.1836 59.4767C42.9951 59.6401 42.9757 59.9251 43.1395 60.1132C43.3025 60.3004 43.5872 60.3209 43.7755 60.1568C46.3146 57.9451 51.0322 56.9381 54.344 55.8319C55.1346 55.8307 51.3242 55.8482 66.5263 55.7712C68.4918 55.7554 70.7335 55.8297 71.6389 57.5471C71.6308 57.6388 73.6773 62.5085 68.0988 62.8935C67.2205 62.9542 63.7685 63.3456 63.0991 63.7709C62.957 63.7819 53.7469 63.2707 48.6382 67.0272C48.4374 67.1748 48.3942 67.4571 48.5413 67.6579C48.6906 67.8596 48.9728 67.9006 49.1721 67.754C53.6592 64.4557 60.8725 64.8467 63.1374 64.6731C63.9631 64.9624 70.6071 63.1025 74.0303 66.1401L74.8425 69.0582C73.8664 72.8839 69.4031 71.2818 68.5666 72.1236C63.9042 73.0056 57.2499 72.6709 54.7228 74.9256C54.5369 75.0912 54.5211 75.3766 54.6866 75.5625C54.8525 75.7482 55.1367 75.7645 55.3236 75.5986C57.5393 73.6221 64.1171 73.8656 68.5919 73.0361C69.1325 73.6036 71.1807 74.0275 69.7972 76.3334C69.0352 77.6165 67.5782 78.1093 66.9474 78.3229C61.4636 80.1865 58.7107 81.1221 57.2906 82.3545C53.5207 85.5629 56.5956 90.1879 50.5847 100.049C49.2623 99.806 47.9066 99.683 46.5776 99.6748C34.6903 99.5803 23.3881 105.87 17.6664 116.733C18.693 117.369 19.2979 117.628 19.8718 117.88C4.35145 111.073 8.31967 91.3548 21.7347 80.1993C23.6287 78.6276 25.8305 77.159 26.8772 74.7772C27.156 74.7791 27.2806 74.8145 27.4422 74.5877C29.4564 71.7506 30.4083 69.8958 31.0135 68.8811C33.1675 65.1507 35.2633 61.4615 36.688 57.4129ZM76.7741 40.9761C76.7505 40.8732 76.7349 40.7728 76.7156 40.6715C77.5794 40.7151 78.4534 40.668 79.3421 40.6024C84.5304 40.2169 89.7859 39.3606 93.0881 35.3367C93.4754 36.9292 94.9246 37.3243 95.7943 37.838C98.2229 39.2736 98.0401 42.675 99.0209 42.8419C99.1838 43.6735 99.165 44.2837 99.841 45.3695C99.8448 45.5484 99.8314 45.7285 99.8219 45.9084C99.6034 49.9996 97.918 49.7841 96.7686 52.1659C96.7662 52.1714 96.7658 52.1769 96.7635 52.1826C96.6537 52.4255 96.6535 52.53 96.6293 52.6216C96.3118 53.8801 96.71 54.7577 97.0126 56.8254L97.0073 56.826C97.2354 59.3212 94.9618 61.4964 92.586 62.1838C90.0938 62.8938 87.3665 62.4481 84.9607 62.0552C83.5036 61.8196 81.9973 61.576 80.6477 60.9453C79.0134 60.1914 77.7228 58.8608 77.59 57.0181C77.4749 55.4888 78.0398 53.894 78.1934 52.01C78.1943 52.0078 78.1943 52.0051 78.1943 52.0025C78.1943 52.0023 78.1943 52.0023 78.1943 52.0021C78.217 51.6468 78.2174 51.2857 78.1978 50.9216C80.7917 53.4892 84.178 54.7374 87.799 55.1902C91.1491 55.6186 92.1084 54.8748 94.672 52.783C94.8658 52.6257 94.8949 52.3416 94.7372 52.1487C94.5795 51.9545 94.2958 51.9263 94.1029 52.0835C91.7481 54.0284 90.9381 54.6818 87.9118 54.2951C83.0735 53.6903 79.8838 51.7272 77.9723 49.339C77.8091 48.6184 77.5642 47.9793 77.2973 47.438C77.6772 46.9095 78.1268 45.6153 78.1088 44.3776C78.0956 43.5042 78.0705 41.8798 76.7741 40.9761ZM80.8779 154.634C79.1153 149.164 64.0813 119.491 58.9525 109.761C69.5662 113.601 68.6686 113.383 73.4082 114.942C79.3527 116.906 84.9668 118.76 88.7301 123.203C97.0393 133.025 96.1166 148.542 84.0678 159.492C83.3619 157.675 82.4443 155.828 80.8779 154.634ZM71.0658 74.2542C70.8138 73.4556 70.1831 73.0183 69.7109 72.7262C71.7734 72.6443 73.6016 72.6516 74.9053 70.9578L74.9463 71.1023C75.5406 73.2099 74.8456 75.4704 73.1823 76.8937L69.8815 77.6656C70.7487 76.8003 71.3959 75.521 71.0658 74.2542ZM69.1991 50.4718L70.589 55.4444C68.7258 54.6289 67.0872 54.9176 57.7567 54.9108C60.1749 54.292 62.5956 53.6775 65.0129 53.0679C66.363 52.7138 68.2071 52.0526 69.1991 50.4718ZM72.2951 61.5856L73.1045 64.4859C72.0311 63.9714 70.8678 63.6875 69.7233 63.5593C70.8803 63.2027 71.7514 62.4893 72.2951 61.5856ZM66.9052 79.2898L68.3794 78.9447C71.2606 83.5608 72.7053 85.6474 74.2961 87.986C74.172 99.4903 74.5799 106.26 74.7269 113.019L74.1341 112.822C68.4085 110.929 53.297 105.21 49.0698 103.889C57.9497 91.9443 54.22 86.1524 57.8792 83.0383C59.1352 81.9485 61.7332 81.0479 66.9052 79.2898ZM84.2406 116.884C84.26 106.532 84.1534 98.4278 82.3806 85.5851C81.3531 78.1027 79.9535 71.4434 76.9356 64.5138L75.717 60.1396C75.8495 59.3182 76.2945 58.6074 76.8467 57.9886C77.2976 59.7365 78.6478 61.0163 80.2679 61.7636C81.7284 62.4463 83.2982 62.7004 84.8152 62.9458C87.4902 63.382 90.2088 63.798 92.8343 63.051C95.6393 62.2398 98.1838 59.728 97.9058 56.7458H97.9039C97.9036 56.7392 97.9021 56.7308 97.9016 56.7235C97.8944 56.6444 97.8083 55.9126 97.7728 55.8415C97.75 55.705 97.7208 55.5651 97.6924 55.4259C100.584 57.488 100.297 59.455 100.343 59.5621C100.399 60.3928 100.328 60.4631 100.013 62.2533C96.8955 80.5336 102.049 104.041 104.069 121.66C97.9263 121.105 91.8455 119.858 85.9855 117.939C85.4339 117.573 84.8499 117.222 84.2406 116.884ZM32.5822 64.2502C31.1643 66.8625 28.7594 71.1494 26.8433 73.8732C24.9597 73.8712 22.5961 74.0584 20.0146 74.7343C24.0985 70.5899 28.1783 67.2495 32.5822 64.2502ZM38.3226 103.281C39.2081 103.194 40.1225 103.18 41.07 103.224C53.1944 109.022 58.0922 117.997 63.9515 129.858C67.7295 137.546 71.516 145.235 75.3028 152.932C74.036 152.904 72.6256 153.023 70.8896 153.309C60.0294 155.042 50.995 158.158 42.1951 162.229C34.1037 146.205 28.8723 137.728 20.1858 131.074C19.4483 129.654 19.4632 129.703 18.8329 128.481C19.1655 113.73 28.6835 104.207 38.3226 103.281ZM21.1712 134.923C38.2068 167.721 37.2421 165.89 37.9595 167.076C37.9714 167.105 37.9828 167.135 37.9947 167.165C27.5498 161.266 22.5209 145.684 21.1712 134.923ZM38.2795 165.397C39.0671 164.491 40.3693 164.097 41.4667 163.575C54.7262 156.945 70.7178 153.66 75.5092 153.834C80.3113 154.002 81.9651 156.418 83.4631 160.418C83.7142 161.11 84.5928 163.582 84.5395 163.42C73.499 164.024 50.1665 168.754 42.0903 174.889C40.7372 171.671 39.6265 168.815 38.2795 165.397ZM48.6233 184.386C52.0964 178.635 62.7248 176.979 69.451 177.575C72.3563 177.833 74.6078 178.529 75.821 178.819C77.8653 179.377 78.2505 180.942 78.7431 183.676C79.2178 186.307 79.6528 187.954 82.5178 191.278C86.3934 195.742 90.8663 199.167 96.5836 200.462C96.586 200.462 96.5889 200.462 96.5913 200.463C97.509 206.923 97.7151 214.829 94.4322 220.466C92.0917 199.859 61.6672 192.494 41.7265 198.394C41.1788 198.545 40.6328 198.715 40.0917 198.886C47.7342 193.318 45.9807 188.748 48.6233 184.386ZM22.0933 215.87C22.1797 215.675 22.2552 215.477 22.3482 215.284C22.3482 215.275 22.3572 215.266 22.3572 215.257C25.4997 208.647 30.016 207.016 35.9514 203.611C55.874 195.22 88.0696 200.889 93.1083 221.561C69.7473 225.69 45.3306 225.841 22.0132 221.943C21.4795 219.94 21.5705 217.948 22.0933 215.87ZM96.4492 199.496C91.0092 198.159 86.8477 194.89 83.2005 190.688C80.5077 187.565 80.0888 186.055 79.6311 183.516C79.1052 180.59 78.6102 178.646 75.9153 177.909C73.476 177.238 71.4473 176.847 69.5303 176.677C62.4169 176.047 51.5308 177.827 47.8516 183.919C47.4299 184.615 47.1088 185.355 46.8356 186.11C46.097 184.359 45.3555 182.605 44.6127 180.856C56.0929 172.927 79.2671 170.163 86.7025 169.463C94.9378 192.528 95.5265 193.512 96.4492 199.496ZM100.538 187.406C117.712 186.394 128.081 184.543 141.406 180.66C141.424 180.754 141.926 183.328 142.118 184.321C140.24 184.354 138.569 184.44 137.123 184.948C130.207 187.356 130.49 191.018 134.044 196.488C134.92 197.827 135.944 199.078 137.09 200.21C136.988 201.202 136.834 202.235 136.643 203.281C131.558 204.275 119.385 206.828 114.19 208.137C111.686 206.638 108.823 205.533 106.012 204.839C98.5101 180.949 101.097 189.189 100.538 187.406ZM126.574 217.124C127.395 217.886 128.15 218.723 128.829 219.62C122.709 219.445 115.402 219.136 108.338 218.723C106.388 215.595 105.171 210.487 106.013 205.764C108.711 206.45 111.446 207.533 113.784 208.944C117.769 211.343 118.179 212.879 121.501 214.8C123.07 215.697 124.803 216.629 126.574 217.124ZM172.57 200.861C173.447 200.618 173.448 200.477 174.472 200.325C180.246 199.451 187.515 203.322 189.923 209.423C191.133 212.511 191.448 215.846 189.965 218.769V218.77C189.903 218.893 189.829 219.009 189.762 219.129C181.39 219.5 173.095 219.744 164.904 219.87C163.211 213.65 165.265 207.274 169.076 201.98C169.427 201.731 169.79 201.48 170.167 201.225C170.856 201.191 171.825 201.066 172.57 200.861ZM146.125 188.075C147.078 189.941 147.649 191.5 147.853 192.092C148.862 194.886 152.328 196.177 159.232 198.747C163.711 200.42 166.588 201.042 168.627 201.192C161.877 205.954 157.257 211.727 158.005 219.95C148.475 220.019 139.106 219.923 129.964 219.654C129.414 218.871 128.808 218.13 128.155 217.434C129.28 217.559 130.48 217.441 131.504 216.944C133.734 215.874 134.523 213.579 135.987 209.33C137.044 206.24 137.718 203.083 138.01 200.083C138.023 199.946 137.973 199.81 137.874 199.715C136.712 198.589 135.677 197.338 134.756 195.928C131.673 191.183 130.91 188.065 137.43 185.797C138.658 185.365 139.749 185.317 141.188 185.254C144.207 185.122 144.708 185.283 146.125 188.075ZM106.219 186.035C104.717 182.117 103.721 179.383 101.668 174.063C114.71 173.359 127.676 170.07 137.096 166.022C136.255 166.269 135.418 166.522 134.585 166.786C132.603 167.277 120.33 171.489 101.5 173.63C98.742 166.497 95.8408 159.41 92.495 152.561C94.3692 149.191 95.6455 145.73 96.152 141.796C97.267 133.21 93.8698 124.47 88.0822 119.534C93.3266 121.077 98.7251 122.096 104.17 122.576C104.28 123.547 104.812 128.203 104.852 129.278C104.969 130.926 104.881 130.767 105.453 130.94C129.95 138.324 128.493 138.02 128.779 137.892C129.43 137.6 129.945 137.27 130.48 136.843L142.494 177.067C130.412 181.885 118.503 184.721 106.219 186.035ZM152.937 48.1968C157.618 48.502 161.718 47.1991 164.127 45.5082C164.331 45.3651 164.381 45.0841 164.237 44.8802C164.093 44.6758 163.811 44.6269 163.609 44.7701C160.675 46.8284 156.233 47.5995 152.568 47.2809C151.026 46.6241 150.034 45.3999 149.713 43.8206C153.436 44.2967 157.128 43.1206 159.802 40.8693C159.993 40.7089 160.017 40.4244 159.857 40.2341C159.695 40.043 159.412 40.0197 159.221 40.1795C156.566 42.4131 152.932 43.4271 149.507 42.8888C149.335 42.8618 149.172 42.9404 149.075 43.0738C146.894 42.2087 145.869 39.8694 146.789 37.6786C146.857 37.6951 146.875 37.7036 146.952 37.6935C150.806 37.1808 154.51 35.7088 157.664 33.4361C157.867 33.2903 157.913 33.0084 157.767 32.8062C157.62 32.604 157.338 32.5591 157.138 32.704C154.132 34.8689 150.608 36.276 146.94 36.7818C146.829 36.6389 146.76 36.6436 146.596 36.5664C145.719 36.1757 144.785 35.3381 144.34 34.3158C143.266 31.8279 145.136 29.7181 145.093 29.8088C145.105 29.7938 145.111 29.7881 145.122 29.7747C149.064 29.1948 152.854 27.973 156.39 26.1415C156.611 26.027 156.697 25.7548 156.583 25.5337C156.468 25.3113 156.196 25.2275 155.974 25.3408C152.546 27.1167 148.871 28.3038 145.049 28.8726C144.259 28.1868 143.502 27.2902 143.004 26.3528C141.176 22.8703 143.525 20.9727 146.873 18.5555C148.545 17.3391 150.371 16.3497 152.401 15.5808C155.315 14.4667 155.516 14.587 156.605 14.5168C156.849 14.5168 157.05 14.3213 157.056 14.075C157.061 13.8261 156.863 13.62 156.614 13.6147C155.682 13.6017 154.839 13.7544 153.546 14.2001C152.261 9.89244 153.273 2.61944 157.409 1.19807C158.237 0.912846 159.232 0.80706 160.261 1.01351C161.475 3.02819 160.291 6.17795 160.482 9.80164C160.788 15.7462 164.604 19.5438 167.175 22.9085C181.065 41.1274 182.744 71.5325 165.398 88.5521C163.995 89.9212 160.275 93.0144 157.979 94.4688C144.368 94.3447 135.793 75.5129 147.482 57.9152C147.484 57.9119 147.483 57.9075 147.485 57.9042C147.818 57.4052 151.152 51.5349 152.937 48.1968ZM137.149 63.0204C126.377 73.5589 130.395 91.2016 139.963 97.044C137.048 97.7004 122.411 98.8086 116.922 93.0841C116.922 93.0841 116.922 93.084 116.922 93.0838C116.601 92.7447 116.295 92.3912 116.012 92.034C115.857 91.8384 115.574 91.805 115.379 91.9596C115.183 92.1142 115.15 92.3978 115.304 92.5934C115.578 92.9405 115.879 93.2812 116.189 93.6142C118.296 103.08 137.618 125.552 129.8 136.231C129.412 136.53 128.998 136.789 128.56 136.999C128.468 136.971 111.539 131.846 111.641 131.877C110.805 120.579 105.598 85.4456 105.072 82.1557C109.786 69.1394 111.452 65.0836 112.342 62.4705C113.213 59.8368 113.661 57.5499 113.078 55.2439C124.752 59.2135 127.511 61.6501 137.149 63.0204ZM103.879 39.644C105.119 41.8848 103.597 44.8792 100.558 44.8066C99.8774 43.6458 100.129 43.3324 99.7443 42.015C99.8641 40.6278 99.6029 38.208 101.553 38.0068C102.389 37.9173 103.412 38.7841 103.879 39.644ZM76.1487 41.6661C76.173 41.6802 76.202 41.6756 76.228 41.6846C76.2386 41.6936 76.2445 41.706 76.2562 41.7141C77.1759 42.3528 77.1953 43.6288 77.2067 44.3934C77.2194 45.2317 77.003 46.082 76.5918 46.8627C76.4988 46.892 76.4145 46.9398 76.3566 47.0217C75.9118 47.6486 74.6437 47.8545 73.7068 46.9649C71.7254 45.0935 72.5725 39.6115 76.1487 41.6661ZM36.5749 25.6914C35.8843 23.2301 36.8559 20.6433 38.9939 19.2549L53.2653 9.98161C55.7469 9.4874 58.209 10.9896 58.8896 13.4408L67.7958 45.4217C65.3326 44.742 54.2451 44.3942 51.7277 45.0409C49.4621 45.6086 47.4082 46.5587 45.467 47.9101C46.1303 44.3525 45.311 41.3129 43.3932 40.5923C42.6059 40.2905 41.7001 40.4489 40.8731 40.8321L36.5749 25.6914ZM40.0026 42.4889C40.8448 41.7031 42.1679 41.0874 43.0726 41.4357C44.4866 41.9669 45.3637 44.9035 44.353 48.743C42.0059 50.6577 39.5577 52.7462 37.3206 55.42C37.9661 53.1399 38.3788 50.7114 38.3509 48.1872C38.317 46.1867 38.473 43.9394 40.0026 42.4889Z" fill="#2B2F23"/>
<path d="M40.1717 22.5047C39.4688 22.647 39.1017 23.762 39.3516 24.9949C39.6015 26.2278 40.374 27.1118 41.0767 26.9693C41.7796 26.8268 42.1468 25.7118 41.8969 24.4789C41.6469 23.246 40.8745 22.362 40.1717 22.5047Z" fill="#2B2F23"/>
<path d="M29.5885 130.443C34.7278 132.636 40.7909 130.563 43.4545 125.537C43.9903 124.526 43.5364 123.741 42.3672 124.411C40.619 125.415 38.6001 127.068 36.6246 127.453C34.4598 127.876 31.9738 127.761 29.7593 127.943C27.7459 128.108 27.7016 129.638 29.5885 130.443Z" fill="#2B2F23"/>
<path d="M48.7741 194.565C64.794 187.726 77.7902 194.857 78.3142 194.857C78.7968 194.857 78.9421 194.193 78.4983 193.994C69.0055 189.753 58.1526 189.581 48.42 193.736C48.191 193.833 48.0844 194.099 48.1822 194.328C48.2799 194.557 48.5442 194.663 48.7741 194.565Z" fill="#2B2F23"/>
<path d="M51.1781 189.115C64.1994 183.555 77.883 189.344 77.9732 189.344C78.4557 189.344 78.6011 188.68 78.1574 188.481C70.6375 185.119 58.8093 184.876 50.824 188.285C50.2769 188.518 50.6256 189.348 51.1781 189.115Z" fill="#2B2F23"/>
<path d="M93.2778 40.649C93.2778 40.3873 93.4312 40.1619 93.6568 40.0625C92.7878 39.6773 91.7262 40.3309 91.7262 41.3527C91.7262 42.1195 92.3487 42.7509 93.1244 42.7509C93.9998 42.7509 94.6967 41.9227 94.4685 41.0098C94.13 41.5309 93.2778 41.3064 93.2778 40.649Z" fill="#2B2F23"/>
<path d="M83.4814 43.7352C84.2481 43.7352 84.8706 43.1128 84.8706 42.337C84.8706 41.3796 83.9147 40.6693 82.9672 41.038C83.7454 41.2327 83.5838 42.328 82.8319 42.328C82.5161 42.328 82.2545 42.1024 82.1824 41.8137C82.1193 41.9763 82.0831 42.1476 82.0831 42.337C82.0831 43.1128 82.7055 43.7352 83.4814 43.7352Z" fill="#2B2F23"/>
<path d="M90.6625 39.7893C91.0513 39.8877 91.4403 39.4699 91.9323 39.2136C92.7252 38.8003 93.7376 38.5492 94.5579 39.0335C94.7722 39.1602 94.9486 39.3529 95.1997 39.4057C95.8969 39.5517 96.1406 38.7612 95.8714 38.316C95.7706 38.1495 95.5734 38.0596 95.4141 37.961C93.9032 37.0272 91.8055 36.9088 90.7721 38.1248C90.5041 38.4401 90.1473 39.1251 90.3271 39.4958C90.3942 39.6341 90.5101 39.7508 90.6625 39.7893Z" fill="#2B2F23"/>
<path d="M84.4859 48.1515C84.7331 49.5311 84.9942 50.691 85.5483 51.8351C85.9078 52.6199 86.4631 53.219 87.3903 53.219C87.8281 53.219 88.2307 53.0732 88.5558 52.9561C90.2584 52.3404 91.5774 50.6717 91.9932 48.984C92.1632 48.2924 92.5623 46.6733 91.5095 46.2645C91.158 46.1289 90.8673 46.2258 90.4638 46.3601C86.3892 47.7184 85.6705 46.3806 84.7995 47.0046C84.3396 47.3331 84.4348 47.8652 84.4859 48.1515ZM91.1175 48.7682C90.9239 49.5552 90.5738 50.1572 90.101 50.7353C89.1097 50.3619 87.5101 50.0324 86.6665 50.208C86.4062 50.2565 86.1784 50.36 85.9652 50.4829C85.8117 50.0204 85.6301 49.337 85.4362 48.3171C86.7402 48.6713 88.2415 48.671 89.5615 48.2436C90.2033 48.0377 90.7693 47.7392 91.3096 47.4107C91.328 47.6436 91.2935 48.0522 91.1175 48.7682Z" fill="#2B2F23"/>
<path d="M107.211 29.0352C107.215 29.1198 107.219 29.1889 107.222 29.2366C107.22 29.1774 107.216 29.1061 107.211 29.0352Z" fill="#2B2F23"/>
<path d="M107.35 2.6709C106.734 9.58528 101.115 15.0342 94.1307 15.3794C101.198 16.1269 106.777 21.7388 107.211 29.0353C106.87 21.4384 112.955 15.4948 120.314 15.8265C113.351 15.1055 107.96 9.54468 107.35 2.6709Z" fill="#2B2F23"/>
<path d="M129.063 37.1597C124.239 36.6591 120.597 32.7975 120.186 28.1511C119.766 32.8687 115.935 36.615 111.134 36.8536C116.003 37.3679 119.867 41.272 120.099 46.342C119.752 41.213 123.883 36.9256 129.063 37.1597Z" fill="#2B2F23"/>
<path d="M101.077 39.8471C100.719 40.7541 100.37 42.5205 101.16 43.0946C101.555 43.3809 102.15 43.2807 102.493 42.9341C103.037 42.3844 103.061 41.3105 102.216 40.39C102.038 40.1954 101.444 38.9181 101.077 39.8471Z" fill="#2B2F23"/>
<path d="M75.7507 44.2997C75.5775 43.6861 75.298 43.1025 74.9283 42.5832C74.3575 41.7794 74.087 43.1505 73.9649 43.3741C73.752 43.7637 73.6201 44.2129 73.6408 44.6598C73.7283 46.534 76.3992 46.5964 75.7507 44.2997Z" fill="#2B2F23"/>
<path d="M87.7674 45.6325C88.2942 45.6325 89.0121 45.5087 89.3936 45.4347C89.6385 45.3876 89.7979 45.1511 89.7512 44.9062C89.7028 44.6613 89.4605 44.5001 89.2227 44.5494C88.7021 44.6499 88.2316 44.7133 87.8431 44.7238C88.1985 43.7367 89.019 43.5442 88.9654 41.7274C88.9584 41.4785 88.7293 41.2794 88.5012 41.2896C88.2519 41.297 88.0563 41.505 88.0634 41.7538C88.0819 42.3792 87.9568 42.873 87.6881 43.2271C87.2617 43.7828 86.6178 44.7745 87.0362 45.3299C87.2644 45.6369 87.6459 45.6321 87.7674 45.6325Z" fill="#2B2F23"/>
</g>
<defs>
<clipPath id="clip0_1006_23854">
<rect width="192.306" height="231.845" fill="white"/>
</clipPath>
</defs>
</svg>
