<svg width="412" height="697" viewBox="0 0 412 697" fill="none" xmlns="http://www.w3.org/2000/svg">
<g opacity="0.02">
<path d="M-40.6386 596.414C-144.403 495.623 -174.785 341.55 -117.181 209.932C-98.5926 228.562 -77.8146 247.572 -57.6602 266.008C16.8403 334.182 93.8766 404.682 83.9572 473.75C77.604 517.834 36.8426 557.987 -40.6386 596.414Z" fill="url(#paint0_linear_1006_21729)"/>
<path d="M554.08 297.781C523.831 293.241 493.571 289.907 464.234 286.675C360.333 275.243 270.594 265.373 240.664 209.475C218.411 167.931 231.083 101.878 279.38 7.65311C350.098 22.4962 413.61 58.1134 463.276 110.794C512.489 163.034 543.806 227.558 554.08 297.781Z" fill="url(#paint1_linear_1006_21729)"/>
<path d="M53.0654 284.368C9.15971 284.357 -43.1864 252.998 -106.893 188.493C-77.279 131.759 -32.6624 84.3097 22.2729 51.1105C77.5883 17.6755 141.067 0 205.868 0C222.643 0 239.581 1.20905 256.279 3.5815C242.299 31.0777 229.3 60.0338 216.704 88.1003C171.395 189.036 128.581 284.364 53.0806 284.364C53.0806 284.364 53.0844 284.368 53.0654 284.368Z" fill="url(#paint2_linear_1006_21729)"/>
<path d="M374.549 653.612C370.386 628.203 365.253 602.661 360.295 577.887C341.901 486.24 324.537 399.664 362.907 352.831C384.297 326.715 421.739 314.035 477.412 314.035C500.494 314.035 527.135 316.301 556.627 320.746C567.467 458.048 496.46 587.666 374.549 653.612Z" fill="url(#paint3_linear_1006_21729)"/>
<path d="M206.362 696.069C121.889 696.069 40.7919 666.466 -22.869 612.55C-2.04539 602.144 19.3713 590.525 40.1379 579.263C107.255 542.833 176.664 505.155 232.508 505.155C263.293 505.155 287.66 516.443 307.009 539.665C328.581 565.565 344.231 607.429 353.5 664.113C307.21 685.313 257.723 696.069 206.362 696.069Z" fill="url(#paint4_linear_1006_21729)"/>
<path opacity="0.5" d="M396.723 608.425C395.236 600.863 393.749 593.388 392.259 585.948C466.01 529.29 510.996 444.125 515.912 351.823C519.588 352.173 523.28 352.55 526.949 352.96C527.01 405.732 513.672 458.014 488.37 504.254C465.779 545.536 434.944 580.576 396.723 608.425Z" fill="white"/>
<path opacity="0.5" d="M206.363 670.376C145.592 670.376 86.5159 653.647 35.299 621.961C38.7018 620.132 42.0817 618.303 45.4579 616.471C91.3672 640.256 143.147 652.818 195.288 652.818C236.254 652.818 276.081 645.298 313.743 630.428C315.507 636.857 317.146 643.552 318.625 650.362C282.875 663.642 245.109 670.376 206.363 670.376Z" fill="white"/>
</g>
<defs>
<linearGradient id="paint0_linear_1006_21729" x1="-30.5884" y1="123.457" x2="-30.5884" y2="649.452" gradientUnits="userSpaceOnUse">
<stop stop-color="#3F3F46"/>
<stop offset="1" stop-color="#171717"/>
</linearGradient>
<linearGradient id="paint1_linear_1006_21729" x1="392.066" y1="-57.2622" x2="392.066" y2="337.596" gradientUnits="userSpaceOnUse">
<stop stop-color="#3F3F46"/>
<stop offset="1" stop-color="#171717"/>
</linearGradient>
<linearGradient id="paint2_linear_1006_21729" x1="74.6931" y1="-63.6265" x2="74.6931" y2="323.392" gradientUnits="userSpaceOnUse">
<stop stop-color="#3F3F46"/>
<stop offset="1" stop-color="#171717"/>
</linearGradient>
<linearGradient id="paint3_linear_1006_21729" x1="448.841" y1="238.056" x2="448.841" y2="700.213" gradientUnits="userSpaceOnUse">
<stop stop-color="#3F3F46"/>
<stop offset="1" stop-color="#171717"/>
</linearGradient>
<linearGradient id="paint4_linear_1006_21729" x1="165.315" y1="462.438" x2="165.315" y2="722.268" gradientUnits="userSpaceOnUse">
<stop stop-color="#3F3F46"/>
<stop offset="1" stop-color="#171717"/>
</linearGradient>
</defs>
</svg>
