<svg width="24" height="24" viewBox="0 0 24 24" fill="none" xmlns="http://www.w3.org/2000/svg">
<path fill-rule="evenodd" clip-rule="evenodd" d="M15.5763 5.55844L14.1547 7.02739L15.5563 8.42556C15.5577 8.427 15.5592 8.42843 15.5606 8.42987L17.0227 9.88847L18.4245 8.43997L18.4357 8.42857C18.8155 8.04849 19.0288 7.53317 19.0288 6.99588C19.0288 6.4587 18.8155 5.9435 18.4359 5.56344C18.0559 5.18389 17.5407 4.9707 17.0036 4.9707C16.4688 4.9707 15.9558 5.18202 15.5763 5.55844ZM15.6318 11.3259L14.8691 10.5651L10.0378 15.6229L10.7674 16.3525L15.6318 11.3259ZM8.92782 17.3413L7.95914 16.3726C7.95553 16.3693 7.95195 16.3659 7.94838 16.3625C7.93349 16.3483 7.91913 16.3337 7.90531 16.3188L6.93719 15.3507L5.9421 18.3364L8.92782 17.3413ZM7.90282 13.4879L8.62322 14.2083L13.4529 9.15224L12.7638 8.46478L7.90282 13.4879ZM12.0308 6.34617C12.0319 6.3451 12.0329 6.34402 12.0339 6.34295L14.1455 4.16097L14.1573 4.14897C14.9124 3.3945 15.9362 2.9707 17.0036 2.9707C18.071 2.9707 19.0948 3.3945 19.8499 4.14897L19.8505 4.14957C20.605 4.90468 21.0288 5.92845 21.0288 6.99588C21.0288 8.06045 20.6072 9.08159 19.8566 9.83611L11.4977 18.4738C11.3859 18.5893 11.2479 18.6762 11.0953 18.7271L4.67729 20.8661C4.31797 20.9858 3.92182 20.8923 3.654 20.6245C3.38618 20.3567 3.29266 19.9605 3.41241 19.6012L5.55141 13.1832C5.59875 13.0412 5.67738 12.9116 5.7815 12.804L12.0308 6.34617Z" fill="#7CCF00"/>
</svg>
