<svg width="20" height="20" viewBox="0 0 20 20" fill="none" xmlns="http://www.w3.org/2000/svg">
<rect width="20" height="20" fill="white"/>
<path fill-rule="evenodd" clip-rule="evenodd" d="M7.15474 2.15478C7.4673 1.84222 7.89122 1.66663 8.33325 1.66663H11.6666C12.1086 1.66663 12.5325 1.84222 12.8451 2.15478C13.1577 2.46734 13.3333 2.89126 13.3333 3.33329V4.99996H15.8333C16.2935 4.99996 16.6666 5.37306 16.6666 5.83329C16.6666 6.29353 16.2935 6.66663 15.8333 6.66663V16.6666C15.8333 17.1087 15.6577 17.5326 15.3451 17.8451C15.0325 18.1577 14.6086 18.3333 14.1666 18.3333H5.83325C5.39123 18.3333 4.9673 18.1577 4.65474 17.8451C4.34218 17.5326 4.16659 17.1087 4.16659 16.6666V6.66663C3.70635 6.66663 3.33325 6.29353 3.33325 5.83329C3.33325 5.37306 3.70635 4.99996 4.16659 4.99996H6.66659V3.33329C6.66659 2.89126 6.84218 2.46734 7.15474 2.15478ZM8.33325 4.99996H11.6666V3.33329H8.33325V4.99996ZM5.83325 6.66663V16.6666H14.1666V6.66663H5.83325ZM8.33325 7.49996C8.79349 7.49996 9.16659 7.87306 9.16659 8.33329V15C9.16659 15.4602 8.79349 15.8333 8.33325 15.8333C7.87301 15.8333 7.49992 15.4602 7.49992 15V8.33329C7.49992 7.87306 7.87301 7.49996 8.33325 7.49996ZM11.6666 7.49996C12.1268 7.49996 12.4999 7.87306 12.4999 8.33329V15C12.4999 15.4602 12.1268 15.8333 11.6666 15.8333C11.2063 15.8333 10.8333 15.4602 10.8333 15V8.33329C10.8333 7.87306 11.2063 7.49996 11.6666 7.49996Z" fill="#E96069"/>
</svg>
