<svg width="56" height="31" viewBox="0 0 56 31" fill="none" xmlns="http://www.w3.org/2000/svg">
<path d="M36.2676 6.36328C32.314 6.36328 28.7808 8.38718 28.7808 12.1265C28.7808 16.4147 35.047 16.7109 35.047 18.8652C35.047 19.7723 33.9944 20.5843 32.1967 20.5843C29.6455 20.5843 27.7386 19.4497 27.7386 19.4497L26.9227 23.2231C26.9227 23.2231 29.1194 24.1814 32.0358 24.1814C36.3583 24.1814 39.7597 22.0581 39.7597 18.255C39.7597 13.7236 33.4674 13.4362 33.4674 11.4367C33.4674 10.7261 34.3314 9.94751 36.124 9.94751C38.1465 9.94751 39.7967 10.7727 39.7967 10.7727L40.5952 7.12828C40.5952 7.12828 38.7997 6.36328 36.2676 6.36328ZM0.0957571 6.63836L0 7.18845C0 7.18845 1.66332 7.48907 3.16138 8.08882C5.09023 8.77648 5.22768 9.17684 5.55252 10.4203L9.09241 23.8978H13.8378L21.1483 6.63836H16.4139L11.7164 18.3731L9.79961 8.42615C9.62381 7.28776 8.73335 6.63836 7.6434 6.63836H0.0957571ZM23.0521 6.63836L19.3381 23.8977H23.8528L27.5537 6.6383H23.0521V6.63836ZM48.2321 6.63836C47.1434 6.63836 46.5666 7.21399 46.1433 8.21989L39.529 23.8977H44.2635L45.1795 21.2847H50.9474L51.5044 23.8977H55.6818L52.0374 6.63836H48.2321ZM48.8478 11.3013L50.2511 17.7779H46.4914L48.8478 11.3013Z" fill="#1434CB"/>
</svg>
